<?xml version="1.0"?>
<svg xmlns="http://www.w3.org/2000/svg" xmlns:xlink="http://www.w3.org/1999/xlink" xmlns:svgjs="http://svgjs.com/svgjs" version="1.1" width="512" height="512" x="0" y="0" viewBox="0 0 64 64" style="enable-background:new 0 0 512 512" xml:space="preserve"><g><g xmlns="http://www.w3.org/2000/svg" id="calculator"><path d="m50 53a.987.987 0 0 1 -.62.92.838.838 0 0 1 -.38.08 1.007 1.007 0 0 1 -.71-.29l-1.29-1.3-1.29 1.3a1 1 0 0 1 -1.09.21.987.987 0 0 1 -.62-.92v-7h-4v14h14v-14h-4z" fill="#515151" data-original="#000000" style=""/><path d="m10 53h3v3h-3z" fill="#515151" data-original="#000000" style=""/><path d="m52.606 5.289a12.861 12.861 0 0 0 -4.606-1.238v2a10.9 10.9 0 0 1 3.6.973z" fill="#515151" data-original="#000000" style=""/><path d="m40.663 8.024-1.006-1.741a13.1 13.1 0 0 0 -3.374 3.374l1.741 1.006a11.1 11.1 0 0 1 2.639-2.639z" fill="#515151" data-original="#000000" style=""/><path d="m46 6.051v-2a12.861 12.861 0 0 0 -4.606 1.238l1 1.735a10.9 10.9 0 0 1 3.606-.973z" fill="#515151" data-original="#000000" style=""/><path d="m8 38h18v-12h-18zm10-9a1 1 0 0 1 1-1h4a1 1 0 0 1 1 1v6a1 1 0 0 1 -1 1h-4a1 1 0 0 1 -1-1z" fill="#515151" data-original="#000000" style=""/><path d="m20 30h2v4h-2z" fill="#515151" data-original="#000000" style=""/><path d="m21 44h3v3h-3z" fill="#515151" data-original="#000000" style=""/><path d="m10 44h3v3h-3z" fill="#515151" data-original="#000000" style=""/><path d="m29 22h-24a1 1 0 0 0 -1 1v36a1 1 0 0 0 1 1h24a1 1 0 0 0 1-1v-36a1 1 0 0 0 -1-1zm-14 35a1 1 0 0 1 -1 1h-5a1 1 0 0 1 -1-1v-5a1 1 0 0 1 1-1h5a1 1 0 0 1 1 1zm0-9a1 1 0 0 1 -1 1h-5a1 1 0 0 1 -1-1v-5a1 1 0 0 1 1-1h5a1 1 0 0 1 1 1zm11 9a1 1 0 0 1 -1 1h-5a1 1 0 0 1 -1-1v-5a1 1 0 0 1 1-1h5a1 1 0 0 1 1 1zm0-9a1 1 0 0 1 -1 1h-5a1 1 0 0 1 -1-1v-5a1 1 0 0 1 1-1h5a1 1 0 0 1 1 1zm2-9a1 1 0 0 1 -1 1h-20a1 1 0 0 1 -1-1v-14a1 1 0 0 1 1-1h20a1 1 0 0 1 1 1z" fill="#515151" data-original="#000000" style=""/><path d="m37.024 12.4-1.735-1a12.872 12.872 0 0 0 -1.238 4.6h2a10.9 10.9 0 0 1 .973-3.6z" fill="#515151" data-original="#000000" style=""/><path d="m47.71 50.29.29.3v-4.59h-2v4.59l.29-.3a1.008 1.008 0 0 1 1.42 0z" fill="#515151" data-original="#000000" style=""/><path d="m21 53h3v3h-3z" fill="#515151" data-original="#000000" style=""/><path d="m48 29.949a12.861 12.861 0 0 0 4.606-1.238l-1-1.735a10.9 10.9 0 0 1 -3.6.973z" fill="#515151" data-original="#000000" style=""/><path d="m53.337 25.976 1.006 1.741a13.1 13.1 0 0 0 3.374-3.374l-1.741-1.006a11.1 11.1 0 0 1 -2.639 2.639z" fill="#515151" data-original="#000000" style=""/><path d="m56.976 21.605 1.735 1a12.872 12.872 0 0 0 1.238-4.605h-2a10.9 10.9 0 0 1 -.973 3.605z" fill="#515151" data-original="#000000" style=""/><path d="m57.949 16h2a12.872 12.872 0 0 0 -1.238-4.607l-1.735 1a10.9 10.9 0 0 1 .973 3.607z" fill="#515151" data-original="#000000" style=""/><path d="m38 17a9 9 0 1 0 9-9 9.01 9.01 0 0 0 -9 9zm6 3h4v-2h-2a2 2 0 0 1 -2-2v-2a2 2 0 0 1 2-2v-2h2v2h2v2h-4v2h2a2 2 0 0 1 2 2v2a2 2 0 0 1 -2 2v2h-2v-2h-2z" fill="#515151" data-original="#000000" style=""/><path d="m36.051 18h-2a12.872 12.872 0 0 0 1.238 4.607l1.735-1a10.9 10.9 0 0 1 -.973-3.607z" fill="#515151" data-original="#000000" style=""/><path d="m46 27.949a10.9 10.9 0 0 1 -3.6-.973l-1 1.735a12.861 12.861 0 0 0 4.6 1.238z" fill="#515151" data-original="#000000" style=""/><path d="m55.976 10.663 1.741-1.006a13.1 13.1 0 0 0 -3.374-3.374l-1.006 1.741a11.1 11.1 0 0 1 2.639 2.639z" fill="#515151" data-original="#000000" style=""/><path d="m38.024 23.337-1.741 1.006a13.1 13.1 0 0 0 3.374 3.374l1.006-1.741a11.1 11.1 0 0 1 -2.639-2.639z" fill="#515151" data-original="#000000" style=""/><path d="m16 16h2v2h-2z" fill="#515151" data-original="#000000" style=""/><path d="m16 8v6h2v-5h14v-2h-15a1 1 0 0 0 -1 1z" fill="#515151" data-original="#000000" style=""/><path d="m46 34h2v8h-2z" fill="#515151" data-original="#000000" style=""/></g></g></svg>
