<svg id="color" enable-background="new 0 0 24 24" height="512" viewBox="0 0 24 24" width="512" xmlns="http://www.w3.org/2000/svg"><path d="m23 8.04h-22c-.553 0-1 .448-1 1v11.96c0 1.654 1.346 3 3 3h18c1.654 0 3-1.346 3-3v-11.96c0-.552-.447-1-1-1z" fill="#eceff1"/><path d="m21 3h-18c-1.657 0-3 1.343-3 3v3.04h24v-3.04c0-1.657-1.343-3-3-3z" fill="#2196f3"/><path d="m12 9.04h-12v11.96c0 1.654 1.346 3 3 3h9z" fill="#cdd0d2"/><path d="m12 3h-9c-1.657 0-3 1.343-3 3v3.04h12z" fill="#1d83d4"/><path d="m7.75 20c-.211 0-.421-.089-.569-.262-.27-.314-.233-.788.081-1.058l3.5-3c.256-.218.624-.241.904-.055l.988.659 2.815-2.815c.293-.293.768-.293 1.061 0s.293.768 0 1.061l-3.25 3.25c-.252.254-.648.292-.946.094l-1.027-.685-3.068 2.63c-.142.121-.316.181-.489.181z" fill="#4caf50"/><path d="m16.25 17c-.195 0-.387-.076-.53-.22l-2.5-2.5c-.215-.214-.278-.537-.163-.817.116-.28.389-.463.693-.463h2.5c.414 0 .75.336.75.75v2.5c0 .303-.183.577-.463.693-.093.038-.19.057-.287.057z" fill="#4caf50"/><path d="m14.47 15.53-1.72 1.72-1.185-.79c-.186-.124-.433-.109-.603.036l-3.782 3.242c.149.173.359.262.57.262.173 0 .347-.06.488-.181l3.068-2.63 1.027.685c.128.085.274.126.418.126.193 0 .385-.074.529-.22l1.72-1.72z" fill="#429846"/><path d="m16.78 13.22-2.31 2.31.53.53.72.72c.144.144.335.22.53.22.097 0 .194-.019.287-.057.28-.116.463-.39.463-.693v-2.5c0-.207-.084-.395-.22-.53z" fill="#429846"/><path d="m6 0h-1c-.553 0-1 .448-1 1v4c0 .552.447 1 1 1h1c.553 0 1-.448 1-1v-4c0-.552-.447-1-1-1z" fill="#607d8b"/><path d="m19 0h-1c-.553 0-1 .448-1 1v4c0 .552.447 1 1 1h1c.553 0 1-.448 1-1v-4c0-.552-.447-1-1-1z" fill="#607d8b"/><g fill="#546d79"><path d="m5.5 0h-.5c-.553 0-1 .448-1 1v4c0 .552.447 1 1 1h.5z"/><path d="m18.5 0h-.5c-.553 0-1 .448-1 1v4c0 .552.447 1 1 1h.5z"/></g></svg>