<svg height="512" viewBox="0 0 60 60" width="512" xmlns="http://www.w3.org/2000/svg"><g id="Page-1" fill="none" fill-rule="evenodd"><g id="019---Pin-Number" fill-rule="nonzero"><rect id="Rectangle-path" fill="#f44335" height="32" rx="6" width="50" x="5" y="1"/><path id="Shape" d="m49 1h-3c3.3137085 0 6 2.6862915 6 6v20c0 3.3137085-2.6862915 6-6 6h3c3.3137085 0 6-2.6862915 6-6v-20c0-3.3137085-2.6862915-6-6-6z" fill="#c81e1e"/><rect id="Rectangle-path" fill="#ff9801" height="8" rx="2" width="10" x="10" y="6"/><circle id="Oval" cx="47" cy="10" fill="#f5f5f5" r="3"/><circle id="Oval" cx="41" cy="10" fill="#ffdc00" r="3"/><path id="Shape" d="m59 40v10c0 1.6568542-1.3431458 3-3 3h-11.82l-1.86-6.84c-.0778895-.2757727-.2703439-.5048796-.5285361-.6291943-.2581921-.1243148-.5573096-.1318907-.8214639-.0208057-6.29 2.54-10.73-5.08-10.96-5.49-.0057054-.0051905-.0092708-.0123214-.01-.02 0 0-1-3 2-3h24c1.6568542 0 3 1.3431458 3 3z" fill="#ffdc00"/><path id="Shape" d="m56 37h-3c1.6568542 0 3 1.3431458 3 3v10c0 1.6568542-1.3431458 3-3 3h3c1.6568542 0 3-1.3431458 3-3v-10c0-1.6568542-1.3431458-3-3-3z" fill="#fec108"/><path id="Shape" d="m33.25 53h-29.25c-1.65685425 0-3-1.3431458-3-3v-10c0-1.6568542 1.34314575-3 3-3h28c-3 0-2 3-2 3 .0007292.0076786.0042946.0148095.01.02z" fill="#f5f5f5"/><path id="Shape" d="m30.01 40.02c-.0057054-.0051905-.0092708-.0123214-.01-.02 0 0-1-3 2-3h-3c-3 0-2 3-2 3 .0007292.0076786.0042946.0148095.01.02l3.24 12.98h3z" fill="#cfd8dc"/><path id="Shape" d="m44.57 56.42c-6.35 5.9-10.36-.12-10.58-.44v-.01l-.74-2.97-3.24-12.98c.23.41 4.67 8.03 10.96 5.49.2641543-.111085.5632718-.1035091.8214639.0208057.2581922.1243147.4506466.3534216.5285361.6291943l1.86 6.84.66 2.43c.1018662.3545279-.0022472.7362773-.27.99z" fill="#ff9801"/><path id="Shape" d="m44.84 55.43-.66-2.43-1.86-6.84c-.0778895-.2757727-.2703439-.5048796-.5285361-.6291943-.2581921-.1243148-.5573096-.1318907-.8214639-.0208057-.5606801.2290586-1.1485085.3850062-1.749.464.0401779.0580691.0737206.1204586.1.186l1.859 6.84.66 2.43c.1018662.3545279-.0022472.7362773-.27.99-1.0902974 1.0912545-2.4283283 1.9026502-3.9 2.365 1.765.518 4.105.23 6.9-2.365.2677528-.2537227.3718662-.6354721.27-.99z" fill="#f57c00"/><path id="Shape" d="m11.57 45.155 1.985-1.323c.297245-.1982824.4661283-.5400812.4430332-.8966441s-.2346599-.6737195-.555-.832-.7007882-.1336383-.9980332.0646441l-1.445.964v-2.132c0-.5522847-.4477153-1-1-1-.55228475 0-1 .4477153-1 1v2.132l-1.445-.964c-.45950091-.306518-1.08048193-.1825009-1.38699996.277-.30651802.4595009-.18250092 1.080482.27699996 1.387l1.985 1.323-2.137 2.138c-.25995658.2510745-.3642126.6228779-.27269716.9725073.09151544.3496295.3645604.6226744.71418984.7141899.34962943.0915154.72143285-.0127406.97250732-.2726972l2.293-2.293 2.293 2.293c.3923789.3789722 1.0160848.3735524 1.4018186-.0121814s.3911536-1.0094397.0121814-1.4018186z" fill="#f44335"/><path id="Shape" d="m25.707 47.293-2.137-2.138 1.985-1.323c.297245-.1982824.4661283-.5400812.4430332-.8966441s-.2346599-.6737195-.555-.832-.7007882-.1336383-.9980332.0646441l-1.445.964v-2.132c0-.5522847-.4477153-1-1-1s-1 .4477153-1 1v2.132l-1.445-.964c-.4595009-.306518-1.0804819-.1825009-1.387.277-.306518.4595009-.1825009 1.080482.277 1.387l1.985 1.323-2.137 2.138c-.2599566.2510745-.3642126.6228779-.2726972.9725073.0915155.3496295.3645604.6226744.7141899.7141899.3496294.0915154.7214328-.0127406.9725073-.2726972l2.293-2.293 2.293 2.293c.3923789.3789722 1.0160848.3735524 1.4018186-.0121814s.3911536-1.0094397.0121814-1.4018186z" fill="#f44335"/><g fill="#000"><path id="Shape" d="m49 34c3.8641657-.0044086 6.9955914-3.1358343 7-7v-20c-.0044086-3.86416566-3.1358343-6.99559136-7-7h-38c-3.86416566.00440864-6.99559136 3.13583434-7 7v20c.00440864 3.8641657 3.13583434 6.9955914 7 7zm-43-7v-20c.00330612-2.76005315 2.23994685-4.99669388 5-5h38c2.7600532.00330612 4.9966939 2.23994685 5 5v20c-.0033061 2.7600532-2.2399468 4.9966939-5 5h-38c-2.76005315-.0033061-4.99669388-2.2399468-5-5z"/><path id="Shape" d="m18 15c1.6568542 0 3-1.3431458 3-3v-4c0-1.65685425-1.3431458-3-3-3h-6c-1.6568542 0-3 1.34314575-3 3v4c0 1.6568542 1.3431458 3 3 3zm0-2h-3v-2h4v1c0 .5522847-.4477153 1-1 1zm1-5v1h-4v-2h3c.5522847 0 1 .44771525 1 1zm-7-1h1v2h-2v-1c0-.55228475.4477153-1 1-1zm-1 5v-1h2v2h-1c-.5522847 0-1-.4477153-1-1z"/><path id="Shape" d="m12 22h6c.5522847 0 1-.4477153 1-1s-.4477153-1-1-1h-6c-.5522847 0-1 .4477153-1 1s.4477153 1 1 1z"/><path id="Shape" d="m22 22h6c.5522847 0 1-.4477153 1-1s-.4477153-1-1-1h-6c-.5522847 0-1 .4477153-1 1s.4477153 1 1 1z"/><path id="Shape" d="m32 22h6c.5522847 0 1-.4477153 1-1s-.4477153-1-1-1h-6c-.5522847 0-1 .4477153-1 1s.4477153 1 1 1z"/><path id="Shape" d="m48 20h-6c-.5522847 0-1 .4477153-1 1s.4477153 1 1 1h6c.5522847 0 1-.4477153 1-1s-.4477153-1-1-1z"/><path id="Shape" d="m14 26h-2c-.5522847 0-1 .4477153-1 1s.4477153 1 1 1h2c.5522847 0 1-.4477153 1-1s-.4477153-1-1-1z"/><path id="Shape" d="m21 26h-2c-.5522847 0-1 .4477153-1 1s.4477153 1 1 1h2c.5522847 0 1-.4477153 1-1s-.4477153-1-1-1z"/><path id="Shape" d="m41 14c1.1531181-.003719 2.247792-.5079987 3-1.382 1.093225 1.2628661 2.8560646 1.7134762 4.4212104 1.1301323 1.5651459-.5833438 2.6030376-2.0778115 2.6030376-3.7481323 0-1.67032082-1.0378917-3.16478849-2.6030376-3.74813234-1.5651458-.58334385-3.3279854-.13273376-4.4212104 1.13013234-1.2110928-1.38665941-3.2134336-1.76522309-4.8471665-.91640804-1.6337329.84881506-2.4750835 2.70483451-2.0366995 4.49295914.438384 1.7881246 2.0427901 3.0445323 3.883866 3.0414489zm6-6c1.1045695 0 2 .8954305 2 2s-.8954305 2-2 2-2-.8954305-2-2 .8954305-2 2-2zm-6 0c1.1045695 0 2 .8954305 2 2s-.8954305 2-2 2-2-.8954305-2-2 .8954305-2 2-2z"/><path id="Shape" d="m56 36h-52c-2.209139 0-4 1.790861-4 4v10c0 2.209139 1.790861 4 4 4h28.469l.547 2.188c.0212845.1087141.060485.2131361.116.309.0260781.0462354.0561955.0900729.09.131 1.2055712 1.7876847 3.0993808 2.9944496 5.229 3.332.2357172.0267802.4727665.0401351.71.04 2.318456-.1371748 4.4964684-1.1565862 6.087-2.849.541522-.5067351.756883-1.2722491.559-1.987l-.317-1.164h10.51c2.209139 0 4-1.790861 4-4v-10c0-2.209139-1.790861-4-4-4zm-52 16c-1.1045695 0-2-.8954305-2-2v-10c0-1.1045695.8954305-2 2-2h24.974c-.1832965.7443804-.1625695 1.5244043.06 2.258l2.935 11.742zm34.677 5.973c-1.5206359-.2691189-2.8714907-1.1327448-3.754-2.4l-2.841-11.368c2.326 2.136 5.592 3.711 9.269 2.216l2.526 9.279c-1.825 1.691-3.572 2.461-5.2 2.273zm19.323-7.973c0 1.1045695-.8954305 2-2 2h-11.055l-1.665-6.1c-.1484632-.5473393-.5246081-1.0046849-1.033-1.256-.5186701-.2561272-1.1221733-.2779668-1.658-.06-5.284 2.141-9.151-4.1-9.657-4.965-.1432983-.4256658-.121528-.889623.061-1.3.2753909-.2440607.6413136-.3599786 1.007-.319h24c1.1045695 0 2 .8954305 2 2z"/></g></g></g></svg>