<?xml version="1.0"?>
<svg xmlns="http://www.w3.org/2000/svg" viewBox="0 0 64 64" width="512" height="512"><g id="Counter"><path d="M61,32H58V23a6,6,0,0,0-6-6H51V15.58A5.014,5.014,0,0,0,54,11V7a5,5,0,0,0-5-5H47a5,5,0,0,0-5,5v4a5.014,5.014,0,0,0,3,4.58V17H44a6,6,0,0,0-6,6v9H25.82a2.962,2.962,0,0,0-2.06-3.89L22.39,24H29a3.009,3.009,0,0,0,3-3V9a3.009,3.009,0,0,0-3-3H9A3.009,3.009,0,0,0,6,9V21a3.009,3.009,0,0,0,3,3h6.61l-1.37,4.11A2.962,2.962,0,0,0,12.18,32H3a1,1,0,0,0-1,1v4a1,1,0,0,0,1,1H4V61a1,1,0,0,0,1,1H59a1,1,0,0,0,1-1V38h1a1,1,0,0,0,1-1V33A1,1,0,0,0,61,32ZM47,4h2a2.986,2.986,0,0,1,2.82,2.01l-1.27-.84a.99.99,0,0,0-.82-.13l-5.7,1.62A3,3,0,0,1,47,4Zm-3,7V8.75l5.83-1.66L52,8.54V11a3.009,3.009,0,0,1-3,3H47A3.009,3.009,0,0,1,44,11Zm5,5v1a1.094,1.094,0,0,1-.13.5A1,1,0,0,1,47,17V16Zm-9,7a4,4,0,0,1,4-4h1.79a3.008,3.008,0,0,0,1.21.81V28h2V19.81A3.008,3.008,0,0,0,50.21,19H52a4,4,0,0,1,4,4v9H54V24H52v8H44V24H42v8H40ZM9,22a1,1,0,0,1-1-1V9A1,1,0,0,1,9,8H29a1,1,0,0,1,1,1V21a1,1,0,0,1-1,1Zm12.61,6H16.39l1.33-4h2.56ZM15,30h8a1,1,0,0,1,0,2H15a1,1,0,0,1,0-2ZM58,60H6V38H58Zm2-24H4V34H60Z"/><path d="M32,52a1,1,0,0,1-1-1H29a3,3,0,0,0,2,2.816V55h2V53.816A2.993,2.993,0,0,0,32,48a1,1,0,1,1,1-1h2a3,3,0,0,0-2-2.816V43H31v1.184A2.993,2.993,0,0,0,32,50a1,1,0,0,1,0,2Z"/><path d="M55,52H54V49a1,1,0,0,0-1-1H40.94a9,9,0,0,0-17.88,0H11a1,1,0,0,0-1,1v3H9a1,1,0,0,0-1,1v4a1,1,0,0,0,1,1H25a1,1,0,0,0,1-1V55.69a8.947,8.947,0,0,0,12,0V57a1,1,0,0,0,1,1H55a1,1,0,0,0,1-1V53A1,1,0,0,0,55,52ZM12,56H10V54h2Zm0-6h2v2H12Zm4,6H14V54h2Zm0-6h2v2H16Zm4,6H18V54h2Zm0-6h2v2H20Zm4,6H22V54h2Zm8,0a7,7,0,1,1,7-7A7.008,7.008,0,0,1,32,56Zm10,0H40V54h2Zm0-6h2v2H42Zm4,6H44V54h2Zm0-6h2v2H46Zm4,6H48V54h2Zm0-6h2v2H50Zm4,6H52V54h2Z"/><rect x="14" y="18" width="10" height="2"/></g></svg>
