<svg height="512" viewBox="0 0 64 64" width="512" xmlns="http://www.w3.org/2000/svg"><g id="customer_service-call_center-woman-headset-headphone" data-name="customer service-call center-woman-headset-headphone"><g fill="#bddbff"><path d="m59 23v9h-4v-9a16 16 0 0 0 -16-16h-14a16 16 0 0 0 -16 16v9h-4v-9a19.994 19.994 0 0 1 20-20h14a19.994 19.994 0 0 1 20 20z"/><path d="m55 33v8a3.657 3.657 0 0 1 -.13 1 3.992 3.992 0 0 1 -3.87 3h-4.69a11.8 11.8 0 0 0 .69-4v-12h4a3.992 3.992 0 0 1 3.87 3 3.657 3.657 0 0 1 .13 1z"/><path d="m47 23v6l-6-3.6-4-2.4-20 6v-6a12 12 0 0 1 12-12h6a12 12 0 0 1 12 12z"/><path d="m17.69 45h-4.69a3.992 3.992 0 0 1 -3.87-3 3.657 3.657 0 0 1 -.13-1v-8a3.657 3.657 0 0 1 .13-1 3.992 3.992 0 0 1 3.87-3h4v12a11.8 11.8 0 0 0 .69 4z"/></g><path d="m28 36h2a4 4 0 0 0 -8 0h2a2 2 0 0 1 4 0z" fill="#57a4ff"/><path d="m38 32a4 4 0 0 0 -4 4h2a2 2 0 0 1 4 0h2a4 4 0 0 0 -4-4z" fill="#57a4ff"/><path d="m32 46c-1.626 0-3-.916-3-2h-2c0 2.206 2.243 4 5 4s5-1.794 5-4h-2c0 1.084-1.374 2-3 2z" fill="#57a4ff"/><path d="m60 31.18v-8.18a21.023 21.023 0 0 0 -21-21h-14a21.023 21.023 0 0 0 -21 21v8.18a3.01 3.01 0 0 0 -2 2.82v6a3.009 3.009 0 0 0 3 3v8a9.014 9.014 0 0 0 9 9h11.18a3.01 3.01 0 0 0 2.82 2h8a3 3 0 0 0 0-6h-8a3.01 3.01 0 0 0 -2.82 2h-11.18a7.008 7.008 0 0 1 -7-7v-8h1.42a5.014 5.014 0 0 0 4.58 3h4a13.031 13.031 0 0 0 12 8h6a13.031 13.031 0 0 0 12-8h4a5.014 5.014 0 0 0 4.58-3h3.42a3.009 3.009 0 0 0 3-3v-6a3.01 3.01 0 0 0 -2-2.82zm-32 26.82h8a1 1 0 0 1 0 2h-8a1 1 0 0 1 0-2zm-20-17h-3a1 1 0 0 1 -1-1v-6a1 1 0 0 1 1-1h3zm5 3a3.009 3.009 0 0 1 -3-3v-8a3.009 3.009 0 0 1 3-3h3v11a12.9 12.9 0 0 0 .36 3zm33-3a11.007 11.007 0 0 1 -11 11h-6a11.007 11.007 0 0 1 -11-11v-11.26l18.86-5.66 9.14 5.49zm0-13.77-4-2.4v-5.83h-2v4.63l-2-1.2v-6.43h-2v6.26l-18 5.4v-4.66a11.007 11.007 0 0 1 11-11h6a11.007 11.007 0 0 1 11 11zm8 13.77a3.009 3.009 0 0 1 -3 3h-3.36a12.9 12.9 0 0 0 .36-3v-11h3a3.009 3.009 0 0 1 3 3zm0-11.97a4.924 4.924 0 0 0 -3-1.03h-3v-5a13.012 13.012 0 0 0 -13-13h-6a13.012 13.012 0 0 0 -13 13v5h-3a4.924 4.924 0 0 0 -3 1.03v-6.03a15.018 15.018 0 0 1 15-15h14a15.018 15.018 0 0 1 15 15zm-15-23.03h-14a17.024 17.024 0 0 0 -17 17v8h-2v-8a19.017 19.017 0 0 1 19-19h14a19.017 19.017 0 0 1 19 19v8h-2v-8a17.024 17.024 0 0 0 -17-17zm21 34a1 1 0 0 1 -1 1h-3v-8h3a1 1 0 0 1 1 1z" fill="#57a4ff"/></g></svg>