<svg id="Capa_1" enable-background="new 0 0 512 512" height="512" viewBox="0 0 512 512" width="512" xmlns="http://www.w3.org/2000/svg"><g id="XMLID_2275_"><g id="XMLID_1871_" fill="#005fe1"><path id="XMLID_1873_" d="m506.888 230.395c0-17.379-14.14-31.519-31.52-31.519h-113.045c-17.38 0-31.52 14.14-31.52 31.519v25.888h176.086v-25.888z"/><path id="XMLID_1872_" d="m330.802 452.43v28.05c0 17.379 14.14 31.519 31.52 31.519h113.045c17.38 0 31.52-14.14 31.52-31.519v-28.05z"/></g><g id="XMLID_2318_" fill="#4895ff"><path id="XMLID_1870_" d="m362.322 198.875c-17.38 0-31.52 14.14-31.52 31.519v25.888h88.043v-57.408h-56.523z"/><path id="XMLID_1868_" d="m330.802 480.481c0 17.379 14.14 31.519 31.52 31.519h56.522v-59.57h-88.043v28.051z"/></g><path id="XMLID_1867_" d="m330.802 251.308h176.085v210.629h-176.085z" fill="#afb4c8"/><path id="XMLID_1866_" d="m330.802 251.308h176.085v210.629h-176.085z" fill="#9bfbff"/><g id="XMLID_1864_"><circle id="XMLID_1865_" cx="418.845" cy="488.49" fill="#00429d" r="11.125"/></g><g id="XMLID_1862_"><path id="XMLID_1863_" d="m288.695 371.617h-154.824c-8.29 0-15.01-6.72-15.01-15.01v-64.607c0-8.29 6.72-15.01 15.01-15.01s15.01 6.72 15.01 15.01v49.598h139.814c8.29 0 15.01 6.72 15.01 15.01s-6.721 15.009-15.01 15.009z" fill="#eb1d83"/></g><g id="XMLID_1860_"><path id="XMLID_1861_" d="m418.687 177.155c-8.29 0-15.01-6.72-15.01-15.01v-31.397h-112.953c-8.29 0-15.01-6.72-15.01-15.01s6.72-15.01 15.01-15.01h127.964c8.29 0 15.01 6.72 15.01 15.01v46.407c-.001 8.29-6.721 15.01-15.011 15.01z" fill="#eb1d83"/></g><g id="XMLID_1858_"><ellipse id="XMLID_1859_" cx="133.968" cy="130.672" fill="#00dd80" rx="113.846" ry="115.662"/></g><g id="XMLID_2317_"><path id="XMLID_1857_" d="m407.721 488.49c0 6.144 4.98 11.125 11.124 11.125v-22.249c-6.144-.001-11.124 4.98-11.124 11.124z" fill="#005fe1"/></g><g id="XMLID_1854_"><path id="XMLID_1855_" d="m330.802 251.308h88.043v210.629h-88.043z" fill="#bdfdff"/></g><g id="XMLID_1852_"><path id="XMLID_1853_" d="m20.122 130.672c0 63.879 50.971 115.662 113.846 115.662v-231.324c-62.875 0-113.846 51.784-113.846 115.662z" fill="#00ff94"/></g><g id="XMLID_2277_" fill="none"><path id="XMLID_1851_" d="m46.255 177.022c7.144 13.964 17.409 26.017 29.848 35.196-4.635-10.64-8.293-22.509-10.878-35.196z"/><path id="XMLID_1850_" d="m118.959 84.323v-47.029c-9.283 8.914-17.767 25.523-22.966 47.029z"/><path id="XMLID_1849_" d="m221.682 84.323c-7.144-13.965-17.41-26.018-29.849-35.198 4.635 10.64 8.293 22.51 10.878 35.198z"/><path id="XMLID_1848_" d="m46.255 84.323h18.97c2.585-12.688 6.243-24.557 10.878-35.197-12.439 9.18-22.705 21.233-29.848 35.197z"/><path id="XMLID_1847_" d="m90.699 130.673c0 5.59.217 11.04.624 16.33h27.635v-32.66h-27.635c-.407 5.289-.624 10.74-.624 16.33z"/><path id="XMLID_1846_" d="m118.959 224.05v-38.984-8.044h-22.966c5.198 21.506 13.682 38.114 22.966 47.028z"/><path id="XMLID_1845_" d="m148.978 37.295v47.028h22.965c-5.199-21.505-13.682-38.114-22.965-47.028z"/><path id="XMLID_1844_" d="m231.497 114.343h-24.799c.359 5.38.558 10.827.558 16.33s-.199 10.95-.558 16.33h24.8c.855-5.317 1.307-10.77 1.307-16.33s-.453-11.013-1.308-16.33z"/><path id="XMLID_1843_" d="m148.978 185.066v38.983c9.283-8.914 17.766-25.522 22.965-47.027h-22.965z"/><path id="XMLID_1842_" d="m60.68 130.673c0-5.503.199-10.95.558-16.33h-24.799c-.855 5.317-1.307 10.77-1.307 16.33s.452 11.013 1.307 16.33h24.799c-.359-5.38-.558-10.828-.558-16.33z"/><path id="XMLID_1841_" d="m191.832 212.22c12.44-9.18 22.706-21.233 29.85-35.198h-18.971c-2.586 12.688-6.244 24.557-10.879 35.198z"/><path id="XMLID_1840_" d="m148.978 114.343v32.66h27.634c.407-5.29.624-10.74.624-16.33s-.217-11.04-.624-16.33z"/></g><path id="XMLID_1824_" d="m133.968 0c-71.052 0-128.856 58.619-128.856 130.673 0 72.053 57.804 130.672 128.856 130.672s128.856-58.619 128.856-130.672c0-72.054-57.804-130.673-128.856-130.673zm-98.836 130.673c0-5.56.452-11.013 1.307-16.33h24.798c-.359 5.38-.558 10.827-.558 16.33s.199 10.95.558 16.33h-24.798c-.855-5.317-1.307-10.771-1.307-16.33zm55.567 0c0-5.59.217-11.04.624-16.33h27.635v32.66h-27.635c-.407-5.29-.624-10.741-.624-16.33zm58.279 54.393v-8.044h22.965c-5.199 21.505-13.682 38.113-22.965 47.027zm28.259-54.393c0 5.59-.217 11.04-.624 16.33h-27.634v-32.66h27.634c.406 5.289.624 10.74.624 16.33zm-28.259-46.35v-47.028c9.283 8.914 17.766 25.523 22.965 47.028zm-30.019-47.029v47.029h-22.967c5.199-21.506 13.683-38.114 22.967-47.029zm0 139.728v8.044 38.984c-9.283-8.914-17.767-25.522-22.966-47.028zm87.739-30.019c.359-5.38.558-10.827.558-16.33s-.199-10.95-.558-16.33h24.799c.855 5.317 1.307 10.77 1.307 16.33s-.452 11.013-1.307 16.33zm14.984-62.68h-18.971c-2.585-12.688-6.243-24.558-10.878-35.198 12.439 9.18 22.705 21.233 29.849 35.198zm-145.579-35.197c-4.635 10.64-8.293 22.509-10.878 35.197h-18.97c7.143-13.964 17.409-26.017 29.848-35.197zm-29.848 127.896h18.97c2.585 12.687 6.243 24.556 10.878 35.196-12.44-9.179-22.705-21.232-29.848-35.196zm145.577 35.198c4.635-10.64 8.293-22.51 10.879-35.198h18.971c-7.144 13.965-17.41 26.018-29.85 35.198z" fill="#005fe1"/><path id="XMLID_1794_" d="m5.112 130.673c0 72.053 57.804 130.672 128.856 130.672v-261.345c-71.052 0-128.856 58.619-128.856 130.673zm31.327 16.33c-.855-5.317-1.307-10.77-1.307-16.33s.452-11.013 1.307-16.33h24.798c-.359 5.38-.558 10.827-.558 16.33s.199 10.95.558 16.33zm9.816 30.019h18.97c2.585 12.687 6.243 24.556 10.878 35.196-12.44-9.179-22.705-21.232-29.848-35.196zm18.97-92.699h-18.97c7.144-13.964 17.409-26.017 29.848-35.197-4.635 10.64-8.293 22.509-10.878 35.197zm53.734 100.743v38.984c-9.283-8.914-17.767-25.522-22.966-47.028h22.966zm0-38.063h-27.636c-.407-5.29-.624-10.74-.624-16.33s.217-11.04.624-16.33h27.635v32.66zm0-62.68h-22.966c5.199-21.506 13.683-38.115 22.966-47.029z" fill="#4895ff"/></g></svg>