<svg height="512pt" viewBox="-11 0 512 512" width="512pt" xmlns="http://www.w3.org/2000/svg"><path d="m451.949219 256c0 114.324219-92.675781 207-207 207s-207-92.675781-207-207 92.675781-207 207-207 207 92.675781 207 207zm0 0" fill="#f0c48a"/><path d="m484.035156 440.8125c0 36.078125-29.246094 65.324219-65.324218 65.324219-36.078126 0-65.324219-29.246094-65.324219-65.324219s29.246093-65.324219 65.324219-65.324219c36.078124 0 65.324218 29.246094 65.324218 65.324219zm0 0" fill="#fd919e"/><path d="m243.949219 168.0625c-3.238281 0-6-2.625-6-5.863281v-48.855469c0-3.238281 2.761719-5.863281 6-5.863281s6 2.625 6 5.863281v48.855469c0 3.238281-2.761719 5.863281-6 5.863281zm0 0" fill="#4c4372"/><path d="m299.929688 113.417969h-109.960938c-29.703125 0-53.78125-24.078125-53.78125-53.777344s24.078125-53.777344 53.78125-53.777344h109.960938c29.703124 0 53.777343 24.074219 53.777343 53.777344 0 29.699219-24.074219 53.777344-53.777343 53.777344zm0 0" fill="#a4cff2"/><path d="m109.734375 162.300781h270.429687v105.292969h-270.429687zm0 0" fill="#fff"/><path d="m344.902344 162.300781h35.261718v105.292969h-35.261718zm0 0" fill="#d3e6f8"/><path d="m136.511719 440.8125c0 36.078125-29.246094 65.324219-65.324219 65.324219s-65.324219-29.246094-65.324219-65.324219 29.246094-65.324219 65.324219-65.324219 65.324219 29.246094 65.324219 65.324219zm0 0" fill="#fd919e"/><path d="m310.273438 440.8125c0 36.078125-29.246094 65.324219-65.324219 65.324219s-65.324219-29.246094-65.324219-65.324219 29.246094-65.324219 65.324219-65.324219 65.324219 29.246094 65.324219 65.324219zm0 0" fill="#fd919e"/><path d="m418.710938 375.488281c-4.941407 0-9.746094.566407-14.371094 1.605469 29.160156 6.550781 50.953125 32.582031 50.953125 63.71875 0 31.140625-21.792969 57.171875-50.953125 63.71875 4.625 1.039062 9.429687 1.609375 14.371094 1.609375 36.078124 0 65.324218-29.25 65.324218-65.324219 0-36.078125-29.246094-65.328125-65.324218-65.328125zm0 0" fill="#e8677d"/><path d="m244.949219 375.488281c-4.941407 0-9.746094.566407-14.371094 1.605469 29.160156 6.550781 50.953125 32.582031 50.953125 63.71875 0 31.140625-21.792969 57.171875-50.953125 63.71875 4.625 1.039062 9.429687 1.609375 14.371094 1.609375 36.078125 0 65.324219-29.25 65.324219-65.324219 0-36.078125-29.246094-65.328125-65.324219-65.328125zm0 0" fill="#e8677d"/><path d="m71.1875 375.488281c-4.941406 0-9.746094.566407-14.371094 1.605469 29.160156 6.550781 50.953125 32.582031 50.953125 63.71875 0 31.140625-21.792969 57.171875-50.953125 63.71875 4.625 1.039062 9.429688 1.609375 14.371094 1.609375 36.078125 0 65.324219-29.25 65.324219-65.324219 0-36.078125-29.246094-65.328125-65.324219-65.328125zm0 0" fill="#e8677d"/><g fill="#4c4372"><path d="m299.929688 119.28125h-109.960938c-32.886719 0-59.640625-26.753906-59.640625-59.640625 0-32.882813 26.753906-59.640625 59.640625-59.640625h109.960938c32.886718 0 59.640624 26.753906 59.640624 59.640625 0 32.882813-26.753906 59.640625-59.640624 59.640625zm-109.960938-107.554688c-26.421875 0-47.917969 21.492188-47.917969 47.914063s21.496094 47.914063 47.917969 47.914063h109.960938c26.421874 0 47.917968-21.492188 47.917968-47.914063s-21.496094-47.914063-47.917968-47.914063zm0 0"/><path d="m380.164062 273.457031h-270.429687c-3.238281 0-5.863281-2.625-5.863281-5.863281v-105.292969c0-3.238281 2.625-5.863281 5.863281-5.863281h270.429687c3.238282 0 5.863282 2.625 5.863282 5.863281v105.292969c0 3.238281-2.625 5.863281-5.863282 5.863281zm-264.566406-11.722656h258.703125v-93.570313h-258.703125zm0 0"/><path d="m71.1875 512c-39.253906 0-71.1875-31.933594-71.1875-71.1875s31.933594-71.1875 71.1875-71.1875 71.1875 31.933594 71.1875 71.1875-31.9375 71.1875-71.1875 71.1875zm0-130.648438c-32.789062 0-59.460938 26.675782-59.460938 59.460938 0 32.789062 26.671876 59.460938 59.460938 59.460938 32.785156 0 59.460938-26.671876 59.460938-59.460938 0-32.785156-26.675782-59.460938-59.460938-59.460938zm0 0"/><path d="m244.949219 512c-39.253907 0-71.1875-31.933594-71.1875-71.1875s31.933593-71.1875 71.1875-71.1875c39.253906 0 71.1875 31.933594 71.1875 71.1875s-31.933594 71.1875-71.1875 71.1875zm0-130.648438c-32.789063 0-59.460938 26.675782-59.460938 59.460938 0 32.789062 26.671875 59.460938 59.460938 59.460938 32.785156 0 59.460937-26.671876 59.460937-59.460938 0-32.785156-26.675781-59.460938-59.460937-59.460938zm0 0"/><path d="m418.710938 512c-39.253907 0-71.1875-31.933594-71.1875-71.1875s31.933593-71.1875 71.1875-71.1875c39.253906 0 71.1875 31.933594 71.1875 71.1875s-31.933594 71.1875-71.1875 71.1875zm0-130.648438c-32.785157 0-59.460938 26.675782-59.460938 59.460938 0 32.789062 26.675781 59.460938 59.460938 59.460938 32.785156 0 59.460937-26.671876 59.460937-59.460938 0-32.785156-26.671875-59.460938-59.460937-59.460938zm0 0"/><path d="m65.15625 381.070312c-2.957031 0-5.5-2.230468-5.820312-5.238281-.015626-.125-1.347657-12.621093-2.105469-25.566406-1.539063-26.183594.429687-30.5 2.769531-33.101563 1.363281-1.515624 3.195312-2.164062 5.164062-2.164062h352.730469c3.238281 0 5.054688 2.25 5.054688 5.488281v54.71875c0 3.238281-2.761719 5.863281-6 5.863281s-6-2.625-6-5.863281v-49.207031h-342.210938c-.980469 8 .273438 29.910156 2.253907 48.40625.34375 3.21875-1.984376 6.199219-5.203126 6.542969-.214843.019531-.425781.121093-.632812.121093zm0 0"/><path d="m243.949219 381.070312c-3.238281 0-6-2.625-6-5.863281v-106.503906c0-3.238281 2.761719-5.863281 6-5.863281s6 2.625 6 5.863281v106.503906c0 3.238281-2.761719 5.863281-6 5.863281zm0 0"/></g></svg>