<?xml version="1.0"?>
<svg xmlns="http://www.w3.org/2000/svg" xmlns:xlink="http://www.w3.org/1999/xlink" xmlns:svgjs="http://svgjs.com/svgjs" version="1.1" width="512" height="512" x="0" y="0" viewBox="0 0 64 64" style="enable-background:new 0 0 512 512" xml:space="preserve"><g><g xmlns="http://www.w3.org/2000/svg" id="customer_service-call_center-woman-headset-headphone" data-name="customer service-call center-woman-headset-headphone"><path d="M36.86,24.08,18,29.74V41A11.007,11.007,0,0,0,29,52h6A11.007,11.007,0,0,0,46,41V29.57ZM24,36H22a4,4,0,0,1,8,0H28a2,2,0,0,0-4,0Zm8,12c-2.76,0-5-1.79-5-4h2c0,1.08,1.37,2,3,2s3-.92,3-2h2C37,46.21,34.76,48,32,48Zm8-12a2,2,0,0,0-4,0H34a4,4,0,0,1,8,0Z" fill="#ffffff" data-original="#000000" style=""/><path d="M35,12H29A11.007,11.007,0,0,0,18,23v4.66l18-5.4V16h2v6.43l2,1.2V19h2v5.83l4,2.4V23A11.007,11.007,0,0,0,35,12Z" fill="#ffffff" data-original="#000000" style=""/><path d="M51,30H48V41a12.9,12.9,0,0,1-.36,3H51a3.009,3.009,0,0,0,3-3V33A3.009,3.009,0,0,0,51,30Z" fill="#ffffff" data-original="#000000" style=""/><path d="M13,30a3.009,3.009,0,0,0-3,3v8a3.009,3.009,0,0,0,3,3h3.36A12.9,12.9,0,0,1,16,41V30Z" fill="#ffffff" data-original="#000000" style=""/><path d="M8,41V33H5a1,1,0,0,0-1,1v6a1,1,0,0,0,1,1Z" fill="#ffffff" data-original="#000000" style=""/><path d="M59,33H56v8h3a1,1,0,0,0,1-1V34A1,1,0,0,0,59,33Z" fill="#ffffff" data-original="#000000" style=""/><path d="M8,23A17.024,17.024,0,0,1,25,6H39A17.024,17.024,0,0,1,56,23v8h2V23A19.017,19.017,0,0,0,39,4H25A19.017,19.017,0,0,0,6,23v8H8Z" fill="#ffffff" data-original="#000000" style=""/><path d="M36,57H28a1.994,1.994,0,0,0-1.723,1H14a7.008,7.008,0,0,1-7-7V43H5v8a9.01,9.01,0,0,0,9,9H26.277A1.994,1.994,0,0,0,28,61h8a2,2,0,0,0,0-4Z" fill="#ffffff" data-original="#000000" style=""/></g></g></svg>
