<?xml version="1.0" encoding="UTF-8"?>
<svg viewBox="0 0 525 370" xmlns="http://www.w3.org/2000/svg">
 <defs>
  <filter id="k">
   <feGaussianBlur stdDeviation=".8052"/>
  </filter>
  <filter id="j">
   <feGaussianBlur stdDeviation="2.1952"/>
  </filter>
  <filter id="i" x="-.14514" y="-.54459" width="1.2903" height="2.0892">
   <feGaussianBlur stdDeviation="8.4596"/>
  </filter>
  <filter id="h" x="-.276" y="-.276" width="1.552" height="1.552">
   <feGaussianBlur stdDeviation=".2978"/>
  </filter>
  <filter id="g" x="-.04661" y="-.15814" width="1.0932" height="1.3163">
   <feGaussianBlur stdDeviation="8.7698"/>
  </filter>
  <linearGradient id="f" x2="0" y1="599.81" y2="285.63" gradientUnits="userSpaceOnUse">
   <stop offset="0"/>
   <stop stop-color="#333" offset="1"/>
  </linearGradient>
  <linearGradient id="e" x2="0" y1="593.9" y2="279.72" gradientUnits="userSpaceOnUse">
   <stop offset="0"/>
   <stop stop-color="#666" offset="1"/>
  </linearGradient>
  <linearGradient id="d" x2="0" y1="472.53" y2="297.78" gradientUnits="userSpaceOnUse">
   <stop stop-color="#ffe680" offset="0"/>
   <stop stop-color="#f4eed7" offset="1"/>
  </linearGradient>
  <linearGradient id="c" x1="417.2" x2="436" y1="163.8" y2="182.32" gradientUnits="userSpaceOnUse">
   <stop stop-color="#f00" offset="0"/>
   <stop stop-color="#ff8080" offset="1"/>
  </linearGradient>
  <linearGradient id="b" x2="0" y1="264.72" y2="620.87" gradientUnits="userSpaceOnUse">
   <stop stop-color="#fff" offset="0"/>
   <stop offset=".5594"/>
   <stop stop-color="#fff" offset="1"/>
  </linearGradient>
  <linearGradient id="a" x2="0" y1="586.4" y2="498.72" gradientUnits="userSpaceOnUse">
   <stop stop-color="#fff" stop-opacity=".4" offset="0"/>
   <stop stop-color="#fff" stop-opacity="0" offset="1"/>
  </linearGradient>
 </defs>
 <g transform="translate(-112.85 -257.98)">
  <path d="m137.59 264.09-4 0.40625-3.875 1.1562-3.5312 1.9062-3.125 2.5625-2.5625 3.125-1.9062 3.5312-1.1562 3.875-0.40625 4v317.19l0.40625 4 1.1562 3.875 1.9062 3.5312 2.5625 3.125 3.125 2.5625 3.5312 1.9062 3.875 1.1562 4 0.40625h477.81l4-0.40625 3.875-1.1562 3.5312-1.9062 3.125-2.5625 2.5625-3.125 1.9062-3.5312 1.1562-3.875 0.40625-4v-317.19l-0.40625-4-1.1562-3.875-1.9062-3.5312-2.5625-3.125-3.125-2.5625-3.5312-1.9062-3.875-1.1562-4-0.40625h-477.81z" fill="url(#f)"/>
  <path d="m152.38 278.74h454.16a11.822 11.822 0 0 1 11.822 11.822v293.54a11.822 11.822 0 0 1 -11.822 11.822h-454.16a11.822 11.822 0 0 1 -11.822 -11.822v-293.54a11.822 11.822 0 0 1 11.822 -11.822" fill="url(#e)" stroke="#fff"/>
  <path transform="translate(6.7812 -4)" d="m143.94 297.78v121.75c47.896 34.027 131.18 58.062 225.78 58.062s177.88-24.036 225.78-58.062v-121.75h-451.56z" fill="url(#d)"/>
  <path d="m376.5 444.34c-16.344 0-31.395 2.7197-43.531 7.4375s-21.53 11.363-25.969 20a4.0396 4.0396 0 0 0 3.0938 5.8438c21.255 2.6008 43.51 4 66.406 4s45.151-1.3992 66.406-4a4.0396 4.0396 0 0 0 3.0938 -5.8438c-4.4387-8.6373-13.832-15.282-25.969-20s-27.187-7.4375-43.531-7.4375z" filter="url(#i)"/>
  <path transform="matrix(1 0 0 -1.6554 2.9554 1310.1)" d="m417.73 588.08c-94.12 5.8959-188.85-8.6782-256.31-39.434" fill="none" stroke="#000" stroke-linecap="square" stroke-width="3.8861"/>
  <path transform="matrix(.57692 0 0 .57692 341.11 209.93)" d="m440 173.36c0 7.1797-5.8203 13-13 13s-13-5.8203-13-13 5.8203-13 13-13 13 5.8203 13 13z" fill="url(#c)"/>
  <path transform="matrix(.6875 0 0 .6875 183.22 104.96)" d="m585.65 292.38c0 0.71519-0.57977 1.295-1.295 1.295s-1.295-0.57977-1.295-1.295 0.57978-1.295 1.295-1.295 1.295 0.57978 1.295 1.295z" fill="#fff" filter="url(#h)" opacity=".9"/>
  <g transform="matrix(.30587 0 0 .30587 458.19 268.47)" font-family="Microsoft YaHei" font-size="40" letter-spacing="0" word-spacing="0">
   <path d="m378.81 188.05v11.309h-3.9062v-30.254h8.5938c3.2682 3e-5 5.804 0.78779 7.6074 2.3633s2.7051 3.8282 2.7051 6.7578c-2e-5 2.9688-1.0547 5.3744-3.1641 7.2168s-4.7461 2.7116-7.9102 2.6074zm0-15.508v12.07h3.6133c2.3828 1e-5 4.1927-0.5371 5.4297-1.6113s1.8554-2.6139 1.8555-4.6191c-2e-5 -3.8932-2.3047-5.8398-6.9141-5.8398z"/>
   <path d="m415.63 199.36h-16.27v-30.254h15.586v3.4766h-11.68v9.6875h10.82v3.457h-10.82v10.176h12.363z"/>
   <path d="m445.16 199.36h-4.3164l-3.0859-8.2812h-12.598l-2.9102 8.2812h-4.3164l11.523-30.254h4.1797zm-8.6133-11.699-4.5703-12.578c-0.14324-0.40362-0.29949-1.1068-0.46875-2.1094h-0.0976c-0.14325 0.91149-0.30601 1.6146-0.48829 2.1094l-4.5312 12.578z"/>
   <path d="m471.04 199.36h-5.3516l-11.367-13.75c-0.39063-0.48175-0.65756-0.85936-0.80078-1.1328h-0.0977v14.883h-3.9062v-30.254h3.9062v14.238h0.0977c0.22135-0.35155 0.48827-0.72264 0.80078-1.1133l10.977-13.125h4.8242l-12.695 14.512z"/>
  </g>
  <g transform="translate(-47.4 217.09)" font-family="Microsoft YaHei" font-size="40" letter-spacing="0" word-spacing="0">
   <path d="m426.7 184.11-11.113 30.254h-4.3359l-10.898-30.254h4.3359l8.1445 23.652c0.27343 0.78126 0.47525 1.6862 0.60547 2.7148h0.0977c0.10415-0.89843 0.33201-1.8164 0.68359-2.7539l8.3008-23.613z"/>
   <path d="m453.36 202.04c-2e-5 8.5547-3.8802 12.832-11.641 12.832-7.4349-1e-5 -11.152-4.1276-11.152-12.383v-18.379h3.9062v18.203c-1e-5 6.0547 2.539 9.082 7.6172 9.082 4.9088 1e-5 7.3633-2.9297 7.3633-8.7891v-18.496h3.9062z"/>
  </g>
  <path d="m379.55 354.84-0.18812-38.289" fill="none" stroke="#000" stroke-width="6.7172"/>
  <path d="m192.07 406.88-19.307-33.065" fill="none" stroke="#000" stroke-width="6.7172"/>
  <path d="m295.27 365.19-8.7777-37.27" fill="none" stroke="#000" stroke-width="6.7172"/>
  <path d="m476.94 366.78 9.7282-37.033" fill="none" stroke="#f00" stroke-width="6.7172"/>
  <path d="m567.93 403.52 18.982-33.253" fill="none" stroke="#f00" stroke-width="6.7172"/>
  <path d="m413.15 356.05 3.2344-38.152" fill="none" stroke="#f00" stroke-width="6.7172"/>
  <path transform="matrix(1 0 0 -1.6554 2.9554 1308.1)" d="m590.8 549c-45.811 20.736-104.68 34.299-168.22 38.757" fill="none" stroke="#f00" stroke-linecap="square" stroke-width="11.658"/>
  <path d="m342.05 357.06-4.0089-38.079" fill="none" stroke="#000" stroke-width="6.7172"/>
  <path d="m248.1 379.83-13.589-35.797" fill="none" stroke="#000" stroke-width="6.7172"/>
  <path d="m365.42 463.63-7.1959-151.83" fill="none" stroke="#000" stroke-width="3"/>
  <path d="m379.46 442.46c-31.778 0-58.448 10.737-65.906 25.25 21.091 2.5807 43.174 3.9688 65.906 3.9688s44.815-1.388 65.906-3.9688c-7.4584-14.513-34.128-25.25-65.906-25.25z" fill="#917c6f" filter="url(#k)"/>
  <g transform="matrix(.55108 0 0 .54366 25.779 113.61)" fill="#f00" font-family="Microsoft YaHei" font-size="40" letter-spacing="0" word-spacing="0">
   <path d="m698.26 357.11c0-5.3385 0.88541-9.3782 2.6562-12.119s4.3359-4.1113 7.6953-4.1113c6.4062 3e-5 9.6094 5.1693 9.6094 15.508-2e-5 5.1042-0.90171 9.0072-2.7051 11.709s-4.3327 4.0527-7.5879 4.0527c-3.0729-1e-5 -5.4525-1.2826-7.1387-3.8477s-2.5293-6.2956-2.5293-11.191zm3.9062-0.17578c-1e-5 8.0339 2.0378 12.051 6.1133 12.051 4.0104 1e-5 6.0156-4.082 6.0156-12.246-1e-5 -8.4505-1.9662-12.676-5.8984-12.676-4.1537 3e-5 -6.2305 4.2904-6.2305 12.871z"/>
  </g>
  <g transform="matrix(.62163 0 0 .54366 68.004 42.626)" fill="#f00" font-family="Microsoft YaHei" font-size="40" letter-spacing="0" word-spacing="0">
   <path d="m666.77 520.26c2.0703 1.6016 4.4075 2.4024 7.0117 2.4024 2.0833 0 3.7337-0.51107 4.9512-1.5332s1.8262-2.3926 1.8262-4.1113c-2e-5 -3.8281-2.7409-5.7422-8.2227-5.7422h-2.5195v-3.1641h2.4024c4.8568 1e-5 7.2851-1.7969 7.2852-5.3906-1e-5 -3.3203-1.8555-4.9804-5.5664-4.9805-2.1224 3e-5 -4.1211 0.71618-5.9961 2.1484v-3.6133c1.9792-1.1458 4.2904-1.7187 6.9336-1.7188 2.5781 3e-5 4.6484 0.67386 6.2109 2.0215s2.3437 3.0957 2.3438 5.2441c-2e-5 3.9584-2.0182 6.5039-6.0547 7.6367v0.0781c2.1875 0.23439 3.916 1.0059 5.1855 2.3144s1.9043 2.9395 1.9043 4.8926c-2e-5 2.7214-0.97984 4.9154-2.9394 6.582s-4.5671 2.5-7.8223 2.5c-2.8646 0-5.1758-0.53385-6.9336-1.6016z"/>
  </g>
  <g transform="matrix(.64 0 0 .55264 269.13 -25.505)" fill="#f00" font-family="Microsoft YaHei" font-size="40" letter-spacing="0" word-spacing="0">
   <path d="m494.05 707.85c2.0312 1.3281 4.1471 1.9922 6.3477 1.9922 2.0833 0 3.763-0.58268 5.0391-1.748s1.914-2.7116 1.9141-4.6387c-2e-5 -1.9401-0.6478-3.444-1.9434-4.5117s-3.1738-1.6016-5.6348-1.6016c-1.1849 1e-5 -2.78 0.0912-4.7852 0.27343v-15.371h14.883v3.3789h-11.328v8.5547c1.1328-0.0651 1.9857-0.0976 2.5586-0.0977 3.1901 2e-5 5.6771 0.80731 7.4609 2.4219s2.6758 3.8412 2.6758 6.6797c-2e-5 2.9297-0.95705 5.2995-2.8711 7.1094s-4.5573 2.7148-7.9297 2.7148c-2.8255 0-4.9544-0.41667-6.3867-1.25z"/>
  </g>
  <g transform="matrix(.62163 0 0 .54366 -40.3 28.775)" font-family="Microsoft YaHei" font-size="40" letter-spacing="0" word-spacing="0">
   <path d="m666.77 520.26c2.0703 1.6016 4.4075 2.4024 7.0117 2.4024 2.0833 0 3.7337-0.51107 4.9512-1.5332s1.8262-2.3926 1.8262-4.1113c-2e-5 -3.8281-2.7409-5.7422-8.2227-5.7422h-2.5195v-3.1641h2.4024c4.8568 1e-5 7.2851-1.7969 7.2852-5.3906-1e-5 -3.3203-1.8555-4.9804-5.5664-4.9805-2.1224 3e-5 -4.1211 0.71618-5.9961 2.1484v-3.6133c1.9792-1.1458 4.2904-1.7187 6.9336-1.7188 2.5781 3e-5 4.6484 0.67386 6.2109 2.0215s2.3437 3.0957 2.3438 5.2441c-2e-5 3.9584-2.0182 6.5039-6.0547 7.6367v0.0781c2.1875 0.23439 3.916 1.0059 5.1855 2.3144s1.9043 2.9395 1.9043 4.8926c-2e-5 2.7214-0.97984 4.9154-2.9394 6.582s-4.5671 2.5-7.8223 2.5c-2.8646 0-5.1758-0.53385-6.9336-1.6016z"/>
  </g>
  <g transform="matrix(.64 0 0 .55264 16.297 -76.792)" font-family="Microsoft YaHei" font-size="40" letter-spacing="0" word-spacing="0">
   <path d="m494.05 707.85c2.0312 1.3281 4.1471 1.9922 6.3477 1.9922 2.0833 0 3.763-0.58268 5.0391-1.748s1.914-2.7116 1.9141-4.6387c-2e-5 -1.9401-0.6478-3.444-1.9434-4.5117s-3.1738-1.6016-5.6348-1.6016c-1.1849 1e-5 -2.78 0.0912-4.7852 0.27343v-15.371h14.883v3.3789h-11.328v8.5547c1.1328-0.0651 1.9857-0.0976 2.5586-0.0977 3.1901 2e-5 5.6771 0.80731 7.4609 2.4219s2.6758 3.8412 2.6758 6.6797c-2e-5 2.9297-0.95705 5.2995-2.8711 7.1094s-4.5573 2.7148-7.9297 2.7148c-2.8255 0-4.9544-0.41667-6.3867-1.25z"/>
  </g>
  <g transform="matrix(.55928 0 0 .56191 142.96 -83.997)" font-family="Microsoft YaHei" font-size="40" letter-spacing="0" word-spacing="0">
   <path d="m265.82 701.3-11.836 28.926h-3.9648l11.25-26.875h-15.117v-3.3789h19.668z"/>
  </g>
  <g transform="matrix(.55209 0 0 .54129 35.899 -55.545)" font-family="Microsoft YaHei" font-size="40" letter-spacing="0" word-spacing="0">
   <path d="m354.99 732.2h-17.344v-3.3008h6.7773v-22.969l-6.9531 2.0117v-3.5156l10.762-3.125v27.598h6.7578z"/>
   <path d="m359.17 717.67c0-5.3385 0.88542-9.3782 2.6562-12.119s4.3359-4.1113 7.6953-4.1113c6.4062 3e-5 9.6094 5.1693 9.6094 15.508-2e-5 5.1042-0.90171 9.0072-2.7051 11.709s-4.3327 4.0527-7.5879 4.0527c-3.0729 0-5.4525-1.2826-7.1387-3.8476s-2.5293-6.2956-2.5293-11.191zm3.9062-0.17578c0 8.0339 2.0378 12.051 6.1133 12.051 4.0104 0 6.0156-4.082 6.0156-12.246-2e-5 -8.4505-1.9662-12.676-5.8984-12.676-4.1536 2e-5 -6.2305 4.2904-6.2305 12.871z"/>
  </g>
  <g transform="matrix(.53358 0 0 .54366 -22.3 -21.615)" font-family="Microsoft YaHei" font-size="40" letter-spacing="0" word-spacing="0">
   <path d="m361.32 721.36h-18.398v-3.3203l8.7891-8.7695c2.4219-2.4219 4.043-4.3392 4.8633-5.752s1.2304-2.8743 1.2305-4.3848c-2e-5 -1.7187-0.48179-3.0371-1.4453-3.9551s-2.3568-1.3769-4.1797-1.377c-2.6953 3e-5 -5.2669 1.1459-7.7148 3.4375v-3.8867c2.3828-1.8359 5.1562-2.7539 8.3203-2.7539 2.7213 3e-5 4.8698 0.7357 6.4453 2.207s2.3633 3.4505 2.3633 5.9375c-2e-5 1.875-0.50458 3.7142-1.5137 5.5176s-2.9199 4.0983-5.7324 6.8848l-6.8945 6.7383v0.0781h13.867z"/>
   <path d="m366.07 706.83c0-5.3385 0.88541-9.3782 2.6562-12.119s4.3359-4.1113 7.6953-4.1113c6.4062 3e-5 9.6094 5.1693 9.6094 15.508-2e-5 5.1042-0.90171 9.0072-2.7051 11.709s-4.3327 4.0527-7.5879 4.0527c-3.0729 0-5.4525-1.2826-7.1387-3.8477s-2.5293-6.2956-2.5293-11.191zm3.9062-0.17578c-1e-5 8.0339 2.0378 12.051 6.1133 12.051 4.0104 0 6.0156-4.082 6.0156-12.246-1e-5 -8.4505-1.9662-12.676-5.8984-12.676-4.1537 3e-5 -6.2305 4.2904-6.2305 12.871z"/>
  </g>
  <path transform="matrix(.96408 0 0 .95437 12.941 19.502)" d="m137.59 264.09-4 0.40625-3.875 1.1562-3.5312 1.9062-3.125 2.5625-2.5625 3.125-1.9062 3.5312-1.1562 3.875-0.40625 4v317.19l0.40625 4 1.1562 3.875 1.9062 3.5312 2.5625 3.125 3.125 2.5625 3.5312 1.9062 3.875 1.1562 4 0.40625h477.81l4-0.40625 3.875-1.1562 3.5312-1.9062 3.125-2.5625 2.5625-3.125 1.9062-3.5312 1.1562-3.875 0.40625-4v-317.19l-0.40625-4-1.1562-3.875-1.9062-3.5312-2.5625-3.125-3.125-2.5625-3.5312-1.9062-3.875-1.1562-4-0.40625h-477.81zm0 4.8125h477.81l3.0625 0.3125 2.9688 0.875 2.7188 1.4688 2.375 1.9688 1.9688 2.375 1.4688 2.7188 0.875 2.9688 0.3125 3.0625v317.19l-0.3125 3.0625-0.875 2.9688-1.4688 2.7188-1.9688 2.375-2.375 1.9688-2.7188 1.4688-2.9688 0.875-3.0625 0.3125h-477.81l-3.0625-0.3125-2.9688-0.875-2.7188-1.4688-2.375-1.9688-1.9688-2.375-1.4688-2.7188-0.875-2.9688-0.3125-3.0625v-317.19l0.3125-3.0625 0.875-2.9688 1.4688-2.7188 1.9688-2.375 2.375-1.9688 2.7188-1.4688 2.9688-0.875 3.0625-0.3125z" fill="url(#b)" filter="url(#j)" opacity=".7306"/>
  <path d="m376.39 500.68c-86.978 0-166.3 15.27-226.19 40.375v43.031c0 1.2709 0.72915 2 1.9688 2h454.19c1.2396 0 1.9688-0.72906 1.9688-2v-40.531c-60.518-26.575-142.13-42.875-231.94-42.875z" fill="url(#a)"/>
  <g transform="translate(361.34 -78.596)" fill="#f00" font-family="Microsoft YaHei" font-size="40" letter-spacing="0" word-spacing="0">
   <path d="m218.48 430.67h-8.4961v8.457h-2.9492v-8.457h-8.457v-2.9883h8.457v-8.457h2.9492v8.457h8.4961z"/>
  </g>
  <g transform="translate(-90.83 -78.596)" font-family="Microsoft YaHei" font-size="40" letter-spacing="0" word-spacing="0">
   <path d="m268.71 421.56h-11.504v-2.9492h11.504z"/>
  </g>
  <path transform="matrix(.921 0 0 .921 17.292 34.91)" d="m150.72 297.78v121.75c5.5347 3.932 11.557 7.7002 18 11.344v-106.09h433.56v-27h-451.56z" fill="#ccc" filter="url(#g)" opacity=".5"/>
 </g>
</svg>
