<?xml version="1.0"?>
<svg xmlns="http://www.w3.org/2000/svg" xmlns:xlink="http://www.w3.org/1999/xlink" xmlns:svgjs="http://svgjs.com/svgjs" version="1.1" width="512" height="512" x="0" y="0" viewBox="0 0 448 448" style="enable-background:new 0 0 512 512" xml:space="preserve"><g><path xmlns="http://www.w3.org/2000/svg" d="m408 0h-368v240h368zm-16 185.472656c0 2.597656-1.265625 5.03125-3.386719 6.53125-2.121093 1.496094-4.835937 1.871094-7.285156 1.003906-1.703125-.640624-3.507813-.980468-5.328125-1.007812-8.835938 0-16 7.164062-16 16 .027344 1.820312.367188 3.625 1.007812 5.328125.867188 2.449219.492188 5.164063-1.003906 7.285156-1.5 2.121094-3.933594 3.386719-6.53125 3.386719h-258.945312c-2.597656 0-5.03125-1.265625-6.53125-3.386719-1.496094-2.121093-1.871094-4.835937-1.003906-7.285156.640624-1.703125.980468-3.507813 1.007812-5.328125 0-8.835938-7.164062-16-16-16-1.820312.027344-3.625.367188-5.328125 1.007812-2.449219.867188-5.164063.492188-7.285156-1.003906-2.121094-1.5-3.386719-3.933594-3.386719-6.53125v-130.945312c0-2.597656 1.265625-5.03125 3.386719-6.53125 2.121093-1.496094 4.835937-1.871094 7.285156-1.003906 1.703125.640624 3.507813.980468 5.328125 1.007812 8.835938 0 16-7.164062 16-16-.027344-1.820312-.367188-3.625-1.007812-5.328125-.867188-2.449219-.492188-5.164063 1.003906-7.285156 1.5-2.121094 3.933594-3.386719 6.53125-3.386719h258.945312c2.597656 0 5.03125 1.265625 6.53125 3.386719 1.496094 2.121093 1.871094 4.835937 1.003906 7.285156-.640624 1.703125-.980468 3.507813-1.007812 5.328125 0 8.835938 7.164062 16 16 16 1.820312-.027344 3.625-.367188 5.328125-1.007812 2.449219-.867188 5.164063-.492188 7.285156 1.003906 2.121094 1.5 3.386719 3.933594 3.386719 6.53125zm0 0" fill="#ffffff" data-original="#000000" style=""/><path xmlns="http://www.w3.org/2000/svg" d="m344 32h-240c0 17.671875-14.328125 32-32 32v112c17.671875 0 32 14.328125 32 32h240c0-17.671875 14.328125-32 32-32v-112c-17.671875 0-32-14.328125-32-32zm-120 80c20.550781-.019531 37.773438 15.535156 39.835938 35.980469 2.066406 20.445312-11.695313 39.128906-31.835938 43.21875v8.800781h-16v-8.800781c-18.613281-3.828125-31.976562-20.199219-32-39.199219h16c0 13.253906 10.746094 24 24 24s24-10.746094 24-24-10.746094-24-24-24c-20.550781.019531-37.773438-15.535156-39.835938-35.980469-2.066406-20.445312 11.695313-39.128906 31.835938-43.21875v-8.800781h16v8.800781c18.613281 3.828125 31.976562 20.199219 32 39.199219h-16c0-13.253906-10.746094-24-24-24s-24 10.746094-24 24 10.746094 24 24 24zm0 0" fill="#ffffff" data-original="#000000" style=""/><path xmlns="http://www.w3.org/2000/svg" d="m80 336c0 13.253906-10.746094 24-24 24s-24-10.746094-24-24 10.746094-24 24-24 24 10.746094 24 24zm0 0" fill="#ffffff" data-original="#000000" style=""/><path xmlns="http://www.w3.org/2000/svg" d="m416 336c0 13.253906-10.746094 24-24 24s-24-10.746094-24-24 10.746094-24 24-24 24 10.746094 24 24zm0 0" fill="#ffffff" data-original="#000000" style=""/><path xmlns="http://www.w3.org/2000/svg" d="m168 344v-16h-32c-3.234375 0-6.152344 1.949219-7.390625 4.9375s-.550781 6.429688 1.734375 8.71875l32 32 11.3125-11.3125-18.34375-18.34375zm0 0" fill="#ffffff" data-original="#000000" style=""/><path xmlns="http://www.w3.org/2000/svg" d="m184 328h32v16h-32zm0 0" fill="#ffffff" data-original="#000000" style=""/><path xmlns="http://www.w3.org/2000/svg" d="m232 328h32v16h-32zm0 0" fill="#ffffff" data-original="#000000" style=""/><path xmlns="http://www.w3.org/2000/svg" d="m285.65625 298.34375-11.3125 11.3125 18.34375 18.34375h-12.6875v16h32c3.234375 0 6.152344-1.949219 7.390625-4.9375s.550781-6.429688-1.734375-8.71875zm0 0" fill="#ffffff" data-original="#000000" style=""/><path xmlns="http://www.w3.org/2000/svg" d="m56 376c-30.910156.039062-55.9609375 25.089844-56 56h112c-.039062-30.910156-25.089844-55.960938-56-56zm0 0" fill="#ffffff" data-original="#000000" style=""/><path xmlns="http://www.w3.org/2000/svg" d="m392 376c-30.910156.039062-55.960938 25.089844-56 56h112c-.039062-30.910156-25.089844-55.960938-56-56zm0 0" fill="#ffffff" data-original="#000000" style=""/></g></svg>
