<?xml version="1.0" encoding="iso-8859-1"?>
<!-- Generator: Adobe Illustrator 21.0.0, SVG Export Plug-In . SVG Version: 6.00 Build 0)  -->
<svg xmlns="http://www.w3.org/2000/svg" xmlns:xlink="http://www.w3.org/1999/xlink" version="1.1" id="Capa_1" x="0px" y="0px" viewBox="0 0 512 512" style="enable-background:new 0 0 512 512;" xml:space="preserve" width="512" height="512">
<g>
	<g>
		<g id="XMLID_3947_">
			<g id="XMLID_3955_">
				<g id="XMLID_3961_">
					<path id="XMLID_3962_" style="fill:#2682FF;" d="M0,176.894v269.911c0,17.196,13.927,31.187,31.046,31.187h449.908       c17.119,0,31.046-13.99,31.046-31.187V176.894l-256-21.363L0,176.894z"/>
				</g>
				<g id="XMLID_3959_">
					<path id="XMLID_3960_" style="fill:#4895FF;" d="M256,155.531L0,176.894v269.911c0,17.196,13.927,31.187,31.046,31.187H256       V157.252V155.531z"/>
				</g>
				<path id="XMLID_3958_" style="fill:#005FE1;" d="M512,146.15c0-25.315-20.475-45.91-45.641-45.91H212.505V79.918      c0-25.314-20.475-45.91-45.641-45.91H45.642C20.475,34.009,0,54.604,0,79.918v96.976h512V146.15z"/>
				<g id="XMLID_3956_">
					<path id="XMLID_3957_" style="fill:#046EFF;" d="M212.505,100.24V79.918c0-25.314-20.475-45.91-45.641-45.91H45.642       C20.475,34.009,0,54.604,0,79.918v96.976h256V100.24H212.505z"/>
				</g>
			</g>
		</g>
	</g>
	<g>
		<path style="fill:#FF3C7D;" d="M348.044,140.049c-4.013-2.806-9.142-3.478-13.742-1.799l-124.697,45.531    c-5.918,2.161-9.855,7.79-9.855,14.09v136.11c-12.523-3.152-27.529-2.175-42.161,3.703c-29.688,11.927-46.57,39.476-37.708,61.533    c8.862,22.057,40.113,30.269,69.8,18.343c24.032-9.654,39.667-29.546,40.053-48.474l0.015,0.003V257.118l94.697-34.577v65.82    c-12.524-3.153-27.532-2.176-42.165,3.702c-29.688,11.927-46.57,39.476-37.708,61.533c8.862,22.057,40.113,30.269,69.8,18.343    c24.388-9.798,40.121-30.137,40.052-49.315c0.015-0.022,0.023-0.034,0.021-0.031V152.341    C354.446,147.444,352.057,142.856,348.044,140.049z M324.446,190.604l-94.697,34.577v-16.817l94.697-34.577V190.604z"/>
		<path style="fill:#FF80AA;" d="M229.749,225.181v-16.817L256,198.779v-31.938l-46.396,16.941c-5.918,2.161-9.855,7.79-9.855,14.09    v136.11c-12.523-3.152-27.529-2.175-42.161,3.703c-29.688,11.927-46.57,39.476-37.708,61.533    c8.862,22.057,40.113,30.269,69.8,18.343c24.032-9.654,39.667-29.546,40.053-48.474l0.015,0.003V257.118L256,247.533v-31.938    L229.749,225.181z"/>
		<path style="fill:#FF80AA;" d="M244.573,353.597c2.364,5.883,6.332,10.77,11.427,14.564v-58.324    C243.838,322.951,238.872,339.407,244.573,353.597z"/>
	</g>
</g>















</svg>
