<?xml version="1.0" standalone="yes"?>
<svg xmlns="http://www.w3.org/2000/svg" width="128" height="128">
<path style="fill:#ffffff; stroke:none;" d="M0 0L0 51C3.36323 50.3755 6.57821 50.0283 10 50L10 44C2.8768 43.4493 3.45238 38.3408 10 37C10.012 32.6429 9.66954 26.8278 13.419 23.7423C16.8243 20.94 22.9049 22 27 22L60 22C68.5015 22 78.772 20.4533 87 22.7886C111.998 29.8837 125.095 57.062 127 81C129.903 74.0813 128 63.4798 128 56L128 0L0 0z"/>
<path style="fill:#000000; stroke:none;" d="M10 37C2.55392 37.8393 2.24298 43.742 10 44L10 50C7.60836 50.0069 4.52151 49.611 2.31867 50.7423C-0.0889592 51.9787 -0.153642 55.1829 2.31867 56.3974C4.49447 57.4662 7.65036 56.9982 10 57C10 64.9981 9.90564 73.0025 10.0039 81C10.0451 84.3555 10.0343 88.7657 12.7029 91.2577C15.6759 94.034 20.3342 91.8923 23.3125 94.6034C25.1552 96.2808 25.9335 98.9268 27.5571 100.812C31.3283 105.19 37.4098 106.719 43 105.775C46.7077 105.15 50.0643 102.901 52.3017 99.9074C53.9068 97.7595 54.5809 94.7753 57.2245 93.6034C63.5979 90.7781 75.0636 93 82 93C83.7456 103.99 96.1852 109.784 105.826 103.633C109.608 101.22 110.64 96.2664 114.274 94.0278C118.017 91.7216 123.987 94.6851 126.821 90.5664C128.972 87.4401 127.84 82.4239 127.196 79C125.459 69.7623 124.129 59.3716 119.677 51C113.144 38.7162 101.087 25.7621 87 22.5293C82.2064 21.4293 76.8868 22 72 22L44 22L22 22C19.0109 22.005 15.0827 21.52 12.7029 23.7423C9.34505 26.878 10.0027 32.8577 10 37z"/>
<path style="fill:#ffffff; stroke:none;" d="M17 29L17 37C21.7061 37 27.4281 36.125 31.9799 37.4336C33.7482 37.942 36.4904 39.4229 35.6543 41.7261C34.9921 43.5502 32.6203 43.797 30.9954 43.9414C26.3932 44.3503 21.6203 44 17 44L17 50C26.9969 50 37.0042 49.8643 47 50.0039C49.6464 50.0408 55.5154 50.0063 55.5154 53.9606C55.5154 57.691 49.3288 56.9952 47 57L17 57L17 86C19.0651 85.9927 21.665 86.3238 23.5872 85.3966C25.7148 84.3703 26.7066 81.8306 28.2739 80.1806C31.4108 76.8782 35.42 74.9361 40 75.0586C48.7264 75.2921 50.7436 84.6495 58.0432 85.8519C63.6131 86.7693 75.5495 87.6847 80.7407 85.3966C86.7464 82.7495 88.3097 75.6599 96 75.1204C104.702 74.5099 106.529 80.9986 112.598 84.9722C114.93 86.4989 118.351 85.998 121 86C120.625 81.2906 120.166 69.1269 116.262 66.0278C114.391 64.5433 111.216 65.0046 109 65L90 65C87.1141 64.9987 82.8586 65.6519 80.6034 63.3966C78.3481 61.1414 79.0013 56.8859 79 54L79 29L17 29M86 30L86 58L115 58C109.812 45.9768 98.8585 33.7114 86 30M0 56L0 128L128 128L128 90C123.422 93.0202 117.579 91.2737 113.495 94.0278C110.273 96.2 109.127 100.663 105.826 103.03C96.3043 109.859 84.7253 103.44 82 93L65 93C62.3923 93.0002 58.8384 92.426 56.4182 93.6034C54.2955 94.6361 53.6083 97.1749 52.3017 98.9645C49.8693 102.296 46.1474 105.116 42 105.772C32.3519 107.296 29.5641 100.212 23.9545 94.6034C20.9137 91.563 15.8125 93.9799 12.7029 90.5664C9.92836 87.5206 10.0195 82.8414 10.0008 79L10 57C6.54479 56.9905 3.36786 56.802 0 56M36.0941 82.8588C26.204 87.1883 32.9961 102.374 42.956 98.1412C52.8796 93.9241 46.2044 78.4329 36.0941 82.8588M94.0193 82.7431C84.1581 86.6034 90.1102 102.009 99.9846 98.3927C110.523 94.533 104.224 78.7483 94.0193 82.7431z"/>
</svg>
