<?xml version="1.0"?>
<svg xmlns="http://www.w3.org/2000/svg" xmlns:xlink="http://www.w3.org/1999/xlink" xmlns:svgjs="http://svgjs.com/svgjs" version="1.1" width="512" height="512" x="0" y="0" viewBox="0 0 512 512" style="enable-background:new 0 0 512 512" xml:space="preserve"><g><path xmlns="http://www.w3.org/2000/svg" d="m255.999 222.8c-53.743 0-97.466 43.724-97.466 97.467s43.723 97.467 97.466 97.467 97.467-43.724 97.467-97.467-43.724-97.467-97.467-97.467zm44.689 120.942c5.857 5.857 5.858 15.355 0 21.213-2.929 2.929-6.768 4.393-10.606 4.393-3.839 0-7.678-1.465-10.607-4.393l-23.477-23.476-23.475 23.476c-2.929 2.929-6.769 4.393-10.607 4.393-3.84 0-7.678-1.464-10.606-4.393-5.858-5.857-5.858-15.355 0-21.213l23.476-23.476-23.476-23.476c-5.858-5.857-5.858-15.355 0-21.213 5.857-5.857 15.355-5.857 21.213 0l23.475 23.476 23.477-23.476c5.857-5.858 15.355-5.858 21.213 0 5.858 5.857 5.857 15.355 0 21.213l-23.477 23.476z" fill="#ffffff" data-original="#000000" style=""/><path xmlns="http://www.w3.org/2000/svg" d="m360.433 158.533c-30.419 0-55.167-24.747-55.167-55.166v-103.367h-201.9c-30.419 0-55.167 24.748-55.167 55.167v401.666c0 30.419 24.748 55.167 55.167 55.167h305.267c30.419 0 55.168-24.748 55.168-55.167v-298.3zm-104.434 289.2c-70.285 0-127.466-57.182-127.466-127.467s57.181-127.466 127.466-127.466 127.467 57.182 127.467 127.467-57.182 127.466-127.467 127.466z" fill="#ffffff" data-original="#000000" style=""/><path xmlns="http://www.w3.org/2000/svg" d="m360.433 128.533h94.581l-119.748-119.746v94.58c0 13.877 11.29 25.166 25.167 25.166z" fill="#ffffff" data-original="#000000" style=""/></g></svg>
