<svg id="Capa_1" enable-background="new 0 0 512.004 512.004" height="512" viewBox="0 0 512.004 512.004" width="512" xmlns="http://www.w3.org/2000/svg" xmlns:xlink="http://www.w3.org/1999/xlink"><linearGradient id="SVGID_1_" gradientUnits="userSpaceOnUse" x1="256.002" x2="256.002" y1="481.002" y2="31.002"><stop offset="0" stop-color="#a93aff"/><stop offset="1" stop-color="#ff81ff"/></linearGradient><g><g><path d="m450.189 337.49c-7.388-3.747-16.416-.796-20.163 6.592-33.452 65.951-100.134 106.92-174.024 106.92-107.523 0-195-87.477-195-195 0-6.726-4.478-12.63-10.955-14.444-6.473-1.813-13.369.905-16.863 6.653l-31 51c-4.303 7.079-2.052 16.306 5.027 20.609 7.078 4.303 16.305 2.052 20.609-5.027l7.838-12.896c20.736 100.589 110.143 179.104 220.344 179.104 85.898 0 162.835-48.541 200.779-123.349 3.748-7.388.797-16.415-6.592-20.162zm-104.187 23.512c8.284 0 15-6.716 15-15v-180c0-8.284-6.716-15-15-15h-180c-8.284 0-15 6.716-15 15v180c0 8.284 6.716 15 15 15zm-105-180h30v35.729l-8.292-4.146c-4.223-2.111-9.193-2.111-13.416 0l-8.292 4.146zm-60 0h30v60c0 5.199 2.692 10.027 7.114 12.76s9.945 2.981 14.594.657l23.292-11.646 23.292 11.646c4.659 2.33 10.181 2.071 14.594-.657 4.422-2.733 7.114-7.561 7.114-12.76v-60h30v150h-150zm323.791 11.182c-7.079-4.303-16.306-2.052-20.609 5.027l-7.838 12.896c-20.736-100.59-110.139-179.105-220.344-179.105-85.898 0-162.835 48.541-200.779 123.349-3.748 7.388-.796 16.416 6.592 20.163 7.388 3.748 16.416.796 20.163-6.592 33.452-65.951 100.134-106.92 174.024-106.92 107.523 0 195 87.477 195 195 0 6.726 4.478 12.63 10.955 14.444 6.464 1.811 13.363-.894 16.863-6.653l31-51c4.303-7.079 2.052-16.306-5.027-20.609z" fill="url(#SVGID_1_)"/></g></g></svg>