<?xml version="1.0" encoding="UTF-8"?>
<svg version="1.1" viewBox="0 0 618.21344 647.68011" xmlns="http://www.w3.org/2000/svg" xmlns:xlink="http://www.w3.org/1999/xlink">
 <defs>
  <pattern id="d" xlink:href="#c" patternTransform="matrix(1 0 0 .99109 479.35 .24539)"/>
  <pattern id="c" width="30.066020" height="5.1805778" patternUnits="userSpaceOnUse">
   <path d="m7.597 0.061c-2.518-0.248-4.941 0.241-7.607 1.727v1.273c2.783-1.63 5.183-2.009 7.482-1.781 2.298 0.228 4.497 1.081 6.781 1.938 4.567 1.713 9.551 3.458 15.813-0.157l-4e-3 -1.273c-6.44 3.709-10.816 1.982-15.371 0.273-2.278-0.854-4.576-1.75-7.094-2z"/>
  </pattern>
 </defs>
 <g transform="translate(-65.212 -187.94)">
  <g transform="matrix(.91058 0 0 .91058 392.64 -1523.5)">
   <path d="m182.16 2399.5 37.969 90.614-15.778 3.1247-62.95-93.739h-198.54l-68.37 91.395-18.407-2.3435 49.962-91.395z" stroke="#000" stroke-width=".68816px"/>
   <path d="m-165.72 2412.1-55.962 172.3 17.672 5.8908 83.943-178.2h222.38l76.58 172.3 20.618-4.4181-55.962-172.3z" stroke="#000" stroke-width="1px"/>
   <path d="m317.75 2374.5v-11.97l-27.205 8.7055-1.0882 20.676z" stroke="#000" stroke-width="1px"/>
   <rect transform="matrix(1 0 -.84092 .54116 0 0)" x="3424.2" y="4390.6" width="589.55" height="108.85" ry="4.2492"/>
   <path d="m-355.84 2435.4 1.0882-16.323 26.117-2.1764-2.1764 14.146z" stroke="#000" stroke-width="1px"/>
   <rect transform="matrix(1 0 -.84092 .54116 0 0)" x="3402.4" y="4364.8" width="587.37" height="108.85" fill="#999"/>
   <g transform="translate(424.27,1755.2)">
    <rect x="-638.81" y="309.61" width="429.94" height="301.94" fill="#666"/>
    <path d="m-211.54 610.66-32.399 26.508-5.8908-38.29 32.399 1.4727z" fill="#666"/>
    <path d="m-641.26 312.54-32.464 16.715 41.301 6.8483 4.4181-20.618z" fill="#666"/>
    <rect x="-672.81" y="333.61" width="429.94" height="301.94" stroke="#ccc" stroke-linecap="round" stroke-width="6"/>
    <rect x="-628.09" y="381.19" width="308.51" height="206.77" ry="50.621" fill="#fff" stroke="#fff" stroke-linecap="round" stroke-width="6"/>
    <circle cx="-281.93" cy="445.52" r="16.376" d="m -265.55399,445.51999 c 0,9.04421 -7.33179,16.376 -16.376,16.376 -9.04422,0 -16.376,-7.33179 -16.376,-16.376 0,-9.04422 7.33178,-16.376 16.376,-16.376 9.04421,0 16.376,7.33178 16.376,16.376 z" fill="#fff" stroke="#b3b3b3" stroke-linecap="round" stroke-width=".6008"/>
    <circle cx="-280.68" cy="491.04" r="16.376" d="m -264.30399,491.04001 c 0,9.04421 -7.33179,16.376 -16.376,16.376 -9.04422,0 -16.376,-7.33179 -16.376,-16.376 0,-9.04422 7.33178,-16.376 16.376,-16.376 9.04421,0 16.376,7.33178 16.376,16.376 z" fill="#fff" stroke="#b3b3b3" stroke-linecap="round" stroke-width=".6008"/>
    <circle cx="-284.47" cy="401.38" r="16.376" d="m -268.094,401.38 c 0,9.04422 -7.33179,16.376 -16.376,16.376 -9.04422,0 -16.376,-7.33178 -16.376,-16.376 0,-9.04421 7.33178,-16.37599 16.376,-16.37599 9.04421,0 16.376,7.33178 16.376,16.37599 z" fill="#fff" stroke="#b3b3b3" stroke-linecap="round" stroke-width=".6008"/>
    <circle cx="-284.58" cy="576.71" r="24.024" d="m -260.55599,576.71002 c 0,13.26809 -10.75591,24.024 -24.024,24.024 -13.26809,0 -24.024,-10.75591 -24.024,-24.024 0,-13.26809 10.75591,-24.024 24.024,-24.024 13.26809,0 24.024,10.75591 24.024,24.024 z" fill="#fff" stroke="#b3b3b3" stroke-linecap="round" stroke-width=".88136"/>
    <path d="m-318.3 431.3c-16.61-65.969-87.937-48.046-89.615-46.088z" fill="#ccc"/>
    <ellipse cx="-225.62" cy="576.71" rx="8.4236" ry="24.202" d="m -217.19639,576.71002 c 0,13.3664 -3.77138,24.202 -8.42361,24.202 -4.65222,0 -8.4236,-10.8356 -8.4236,-24.202 0,-13.36639 3.77138,-24.202 8.4236,-24.202 4.65223,0 8.42361,10.83561 8.42361,24.202 z" fill="#e6e6e6" stroke="#b3b3b3" stroke-linecap="round" stroke-width=".52384"/>
    <ellipse cx="-225.62" cy="576.19" rx="4.1147" ry="11.822" d="m -221.5053,576.19 c 0,6.52911 -1.84221,11.822 -4.1147,11.822 -2.27248,0 -4.11469,-5.29289 -4.11469,-11.822 0,-6.52911 1.84221,-11.822 4.11469,-11.822 2.27249,0 4.1147,5.29289 4.1147,11.822 z" fill="#b3b3b3" stroke="#b3b3b3" stroke-linecap="round" stroke-width=".25588"/>
   </g>
   <rect x="-203.72" y="2012.9" width="103.09" height="55.962" fill="#808080"/>
   <path d="m-213.28 2019.8 11.97-7.6173 6.5291 9.7937z" fill="#999"/>
   <rect x="-213.72" y="2018.9" width="103.09" height="55.962"/>
   <ellipse cx="-179.11" cy="2044.7" rx="22.827" ry="16.936" d="m -156.283,2044.7 c 0,9.3534 -10.22,16.936 -22.827,16.936 -12.607,0 -22.827,-7.5826 -22.827,-16.936 0,-9.3535 10.22,-16.936 22.827,-16.936 12.607,0 22.827,7.5825 22.827,16.936 z" fill="#fff"/>
   <ellipse cx="-127.57" cy="2035.1" rx="6.6271" ry="4.4181" d="m -120.9429,2035.1 c 0,2.44 -2.96705,4.4181 -6.6271,4.4181 -3.66005,0 -6.6271,-1.9781 -6.6271,-4.4181 0,-2.4401 2.96705,-4.4181 6.6271,-4.4181 3.66005,0 6.6271,1.978 6.6271,4.4181 z" fill="#fff"/>
   <rect transform="rotate(-10.599)" x="-289.08" y="1863.7" width="5.5403" height="174.52" fill="#808080" stroke="#ccc"/>
   <rect transform="rotate(17.998)" x="720.44" y="1752.8" width="5.5403" height="174.52" fill="#808080" stroke="#ccc"/>
   <path d="m23.383 2079.3 123.71-2.9454 1.4727-16.2c-23.18-20.9-75.993-31.5-125.18 2.9z" stroke="#000" stroke-width="1px"/>
   <path d="m41.68 2067.1 42.624-11.728-0.29572-3.2155c-14.317 0.4207-28.641 1.23-43.133 11.861z" fill="#fff"/>
   <ellipse cx="61.483" cy="1883.8" rx="7.0732" ry="4.2923" d="m 68.556202,1883.8 c 0,2.3706 -3.16678,4.2923 -7.0732,4.2923 -3.906421,0 -7.073201,-1.9217 -7.073201,-4.2923 0,-2.3705 3.16678,-4.2923 7.073201,-4.2923 3.90642,0 7.0732,1.9218 7.0732,4.2923 z" opacity=".793"/>
   <ellipse transform="matrix(.75148 .65975 -.65975 .75148 0 0)" cx="1355.7" cy="1322.4" rx="7.0732" ry="4.2923" d="m 1362.7732,1322.4 c 0,2.3706 -3.1668,4.2923 -7.0732,4.2923 -3.9065,0 -7.0732,-1.9217 -7.0732,-4.2923 0,-2.3705 3.1667,-4.2923 7.0732,-4.2923 3.9064,0 7.0732,1.9218 7.0732,4.2923 z" opacity=".793"/>
   <path d="m-165.05 2436.5-50.057 143.64" fill="none" stroke="#fff" stroke-width="1px"/>
   <path d="m145.85 2442 48.968 133.85" fill="none" stroke="#fff" stroke-width="1px"/>
   <path d="m-168.67 2036.1-23.94 16.323" fill="none" stroke="#000" stroke-width="1px"/>
   <rect x="-214.12" y="2136.1" width="324.03" height="210.36" ry="63.278" fill="url(#d)" opacity=".346" stroke="#ccc" stroke-linecap="round" stroke-width=".94975"/>
  </g>
 </g>
</svg>
