<?xml version="1.0" encoding="UTF-8" standalone="no"?>
<!DOCTYPE svg PUBLIC "-//W3C//DTD SVG 1.1//EN" "http://www.w3.org/Graphics/SVG/1.1/DTD/svg11.dtd">
<svg version="1.1" xmlns="http://www.w3.org/2000/svg" xmlns:xlink="http://www.w3.org/1999/xlink" preserveAspectRatio="xMidYMid meet" viewBox="0 0 640 640" width="640" height="640"><defs><path d="M46.51 61.57C46.51 61.57 46.24 61.57 45.9 61.57C45.57 61.57 45.3 61.57 45.3 61.57C45.3 61.57 45.57 61.57 45.9 61.57C46.24 61.57 46.39 61.57 46.51 61.57Z" id="a5XqvQ4Lz7"></path><path d="M570.6 314.82C570.6 455.46 454.53 569.64 311.57 569.64C168.6 569.64 52.53 455.46 52.53 314.82C52.53 174.18 168.6 60 311.57 60C454.53 60 570.6 174.18 570.6 314.82Z" id="b6A6ie26W"></path><path d="" id="dagdzwYSP"></path><path d="M288.67 557.95L278.15 524.12L154.94 127.83" id="eyMeXDjoY"></path><path d="M510.84 464.02L230.84 342.89" id="apUqzSxIm"></path></defs><g><g><g><use xlink:href="#a5XqvQ4Lz7" opacity="1" fill="#a03415" fill-opacity="1"></use></g><g><g></g><use xlink:href="#b6A6ie26W" opacity="1" fill="#931ee9" fill-opacity="1"></use><g><use xlink:href="#b6A6ie26W" opacity="1" fill-opacity="0" stroke="#ffffff" stroke-width="16" stroke-opacity="1"></use></g><g></g></g><g><g><use xlink:href="#dagdzwYSP" opacity="1" fill-opacity="0" stroke="#deeae5" stroke-width="16" stroke-opacity="1"></use></g></g><g><g><use xlink:href="#eyMeXDjoY" opacity="1" fill-opacity="0" stroke="#ffffff" stroke-width="16" stroke-opacity="1"></use></g></g><g><use xlink:href="#apUqzSxIm" opacity="1" fill="#ffffff" fill-opacity="1"></use><g><use xlink:href="#apUqzSxIm" opacity="1" fill-opacity="0" stroke="#ffffff" stroke-width="16" stroke-opacity="1"></use></g></g></g></g></svg>