<?xml version="1.0"?>
<svg xmlns="http://www.w3.org/2000/svg" xmlns:xlink="http://www.w3.org/1999/xlink" xmlns:svgjs="http://svgjs.com/svgjs" version="1.1" width="512" height="512" x="0" y="0" viewBox="0 0 512.286 512.286" style="enable-background:new 0 0 512 512" xml:space="preserve"><g><g xmlns="http://www.w3.org/2000/svg"><path d="m350.261 400.83c-9.784-18.164-34.568-4.633-27.22 12.614l21.039 45.401c9.454 18.016 34.549 4.932 27.22-12.614z" fill="#484848" data-original="#000000" style=""/><path d="m258.076 407.674c-8.284 0-15 6.716-15 15v50.109c1.24 20.595 29.416 18.738 30 0v-50.109c0-8.284-6.716-15-15-15z" fill="#484848" data-original="#000000" style=""/><path d="m185.975 392.818c-7.518-3.482-16.434-.213-19.917 7.303l-21.039 45.4c-7.576 18.308 17.983 29.916 27.22 12.614l21.039-45.4c3.482-7.517.213-16.434-7.303-19.917z" fill="#484848" data-original="#000000" style=""/><path d="m5.379 147.8c5.377 4.452 15.038 5.084 21.129-1.886 105.037-113.697 345.878-128.792 458.879-.687 5.044 6.572 14.462 7.81 21.032 2.765 6.571-5.044 7.809-14.461 2.765-21.032-126.071-145.141-390.2-127.046-505.691-.289-5.314 6.355-4.47 15.815 1.886 21.129z" fill="#484848" data-original="#000000" style=""/><path d="m155.035 231.656c0 56.063 45.707 101.673 101.889 101.673 56.181 0 101.888-45.61 101.888-101.673s-45.707-101.673-101.888-101.673c-56.182 0-101.889 45.61-101.889 101.673zm101.889-57.689c31.854 0 57.768 25.879 57.768 57.689s-25.915 57.689-57.768 57.689-57.768-25.879-57.768-57.689 25.915-57.689 57.768-57.689z" fill="#484848" data-original="#000000" style=""/><ellipse cx="256.924" cy="231.656" rx="27.768" ry="27.689" fill="#484848" data-original="#000000" style=""/><path d="m286.873 103.409c58.344 13.576 101.94 65.923 101.94 128.246 0 63.171-44.792 116.087-104.331 128.773 142.388-9.864 210.793-101.477 225.668-124.234 1.801-2.755 1.788-6.308-.038-9.047-14.6-21.892-82.555-111.524-223.239-123.738z" fill="#484848" data-original="#000000" style=""/><path d="m125.035 231.656c0-63.255 44.911-116.229 104.569-128.824-156.181 10.251-221.901 114.692-227.07 123.492l-.982 1.552c-1.473 2.327-1.438 5.306.101 7.589 13.908 20.635 82.856 112.153 225.406 124.458-58.386-13.546-102.024-65.914-102.024-128.267z" fill="#484848" data-original="#000000" style=""/></g></g></svg>
